<svg xmlns="http://www.w3.org/2000/svg" xmlns:xlink="http://www.w3.org/1999/xlink" width="500" zoomAndPan="magnify" viewBox="0 0 375 374.999991" height="500" preserveAspectRatio="xMidYMid meet" version="1.0"><defs><g/><clipPath id="c9086349f8"><rect x="0" width="333" y="0" height="232"/></clipPath></defs><g transform="matrix(1, 0, 0, 1, 19, 66)"><g clip-path="url(#c9086349f8)"><g fill="#eeeeee" fill-opacity="1"><g transform="translate(1.392915, 184.988169)"><g><path d="M 15.503906 -73.074219 L 98.757812 -114.703125 L 98.757812 -94.75 L 39.363281 -65.820312 C 37.824219 -65.050781 36.410156 -64.40625 35.113281 -63.890625 C 33.8125 -63.367188 32.695312 -62.976562 31.769531 -62.710938 L 31.414062 -63.960938 L 31.824219 -62.726562 C 30.617188 -62.324219 29.53125 -62.054688 28.570312 -61.917969 L 28.386719 -63.207031 L 29.6875 -63.207031 L 29.6875 -61.882812 L 28.386719 -61.882812 L 28.570312 -63.167969 C 29.484375 -63.039062 30.527344 -62.84375 31.695312 -62.582031 L 31.734375 -62.574219 L 31.769531 -62.5625 C 32.695312 -62.300781 33.8125 -61.90625 35.113281 -61.386719 C 36.410156 -60.867188 37.828125 -60.222656 39.375 -59.449219 L 98.757812 -29.949219 L 98.757812 -10.195312 L 14.785156 -52.183594 L 14.785156 -72.714844 Z M 16.667969 -70.746094 L 16.085938 -71.910156 L 17.386719 -71.910156 L 17.386719 -52.988281 L 16.085938 -52.988281 L 16.667969 -54.152344 L 98.039062 -13.464844 L 97.457031 -12.300781 L 96.15625 -12.300781 L 96.15625 -29.144531 L 97.457031 -29.144531 L 96.878906 -27.976562 L 38.210938 -57.121094 C 36.730469 -57.863281 35.375 -58.480469 34.148438 -58.96875 C 32.925781 -59.457031 31.898438 -59.820312 31.054688 -60.0625 L 31.414062 -61.3125 L 31.132812 -60.042969 C 30.027344 -60.289062 29.050781 -60.472656 28.203125 -60.59375 L 27.085938 -60.753906 L 27.085938 -64.332031 L 28.203125 -64.492188 C 29.007812 -64.609375 29.941406 -64.84375 31.003906 -65.195312 L 31.027344 -65.207031 L 31.054688 -65.214844 C 31.898438 -65.453125 32.925781 -65.816406 34.148438 -66.304688 C 35.375 -66.796875 36.734375 -67.414062 38.222656 -68.160156 L 96.886719 -96.734375 L 97.457031 -95.566406 L 96.15625 -95.566406 L 96.15625 -112.597656 L 97.457031 -112.597656 L 98.039062 -111.433594 Z M 16.667969 -70.746094 "/></g></g></g><g fill="#eeeeee" fill-opacity="1"><g transform="translate(111.718705, 184.988169)"><g><path d="M 81.371094 -158.367188 L 101.230469 -158.367188 L 33.070312 22.117188 L 12.3125 22.117188 L 80.472656 -158.367188 Z M 81.371094 -155.765625 L 81.371094 -157.066406 L 82.589844 -156.609375 L 15.410156 21.277344 L 14.191406 20.816406 L 14.191406 19.515625 L 32.171875 19.515625 L 32.171875 20.816406 L 30.953125 20.355469 L 98.132812 -157.527344 L 99.351562 -157.066406 L 99.351562 -155.765625 Z M 81.371094 -155.765625 "/></g></g></g><g fill="#eeeeee" fill-opacity="1"><g transform="translate(222.044496, 184.988169)"><g><path d="M 15.515625 -30.5 L 74.179688 -59.078125 C 75.71875 -59.84375 77.132812 -60.488281 78.429688 -61.007812 C 79.746094 -61.535156 80.9375 -61.929688 82.003906 -62.195312 L 82.320312 -60.933594 L 81.863281 -62.152344 C 82.960938 -62.566406 83.996094 -62.839844 84.972656 -62.980469 L 85.15625 -61.691406 L 83.855469 -61.691406 L 83.855469 -63.015625 L 85.15625 -63.015625 L 84.972656 -61.726562 C 83.996094 -61.867188 82.960938 -62.144531 81.863281 -62.554688 L 82.320312 -63.773438 L 82.09375 -62.492188 C 79.816406 -62.894531 77.167969 -63.882812 74.148438 -65.457031 L 14.785156 -94.949219 L 14.785156 -114.703125 L 98.757812 -72.714844 L 98.757812 -52.183594 L 14.785156 -10.195312 L 14.785156 -30.144531 Z M 16.65625 -28.164062 L 16.085938 -29.332031 L 17.386719 -29.332031 L 17.386719 -12.300781 L 16.085938 -12.300781 L 15.503906 -13.464844 L 96.875 -54.152344 L 97.457031 -52.988281 L 96.15625 -52.988281 L 96.15625 -71.910156 L 97.457031 -71.910156 L 96.875 -70.746094 L 15.503906 -111.433594 L 16.085938 -112.597656 L 17.386719 -112.597656 L 17.386719 -95.753906 L 16.085938 -95.753906 L 16.664062 -96.917969 L 75.351562 -67.765625 C 78.132812 -66.3125 80.53125 -65.410156 82.542969 -65.054688 L 82.664062 -65.035156 L 82.777344 -64.992188 C 83.695312 -64.644531 84.550781 -64.417969 85.339844 -64.304688 L 86.457031 -64.144531 L 86.457031 -60.5625 L 85.339844 -60.402344 C 84.550781 -60.289062 83.695312 -60.0625 82.777344 -59.714844 L 82.707031 -59.691406 L 82.632812 -59.671875 C 81.683594 -59.433594 80.601562 -59.074219 79.394531 -58.589844 C 78.167969 -58.101562 76.808594 -57.480469 75.320312 -56.738281 Z M 16.65625 -28.164062 "/></g></g></g><g fill="#eeeeee" fill-opacity="1"><g transform="translate(1.392915, 184.988169)"><g><path d="M 16.078125 -71.90625 L 97.453125 -112.59375 L 97.453125 -95.5625 L 38.796875 -66.984375 C 37.273438 -66.234375 35.882812 -65.601562 34.625 -65.09375 C 33.363281 -64.59375 32.289062 -64.21875 31.40625 -63.96875 C 30.269531 -63.582031 29.265625 -63.328125 28.390625 -63.203125 L 28.390625 -61.875 C 29.265625 -61.75 30.269531 -61.5625 31.40625 -61.3125 C 32.289062 -61.0625 33.363281 -60.679688 34.625 -60.171875 C 35.882812 -59.671875 37.273438 -59.039062 38.796875 -58.28125 L 97.453125 -29.140625 L 97.453125 -12.296875 L 16.078125 -52.984375 Z M 16.078125 -71.90625 "/></g></g></g><g fill="#eeeeee" fill-opacity="1"><g transform="translate(111.718705, 184.988169)"><g><path d="M 81.375 -157.0625 L 99.34375 -157.0625 L 32.171875 20.8125 L 14.1875 20.8125 Z M 81.375 -157.0625 "/></g></g></g><g fill="#eeeeee" fill-opacity="1"><g transform="translate(222.044496, 184.988169)"><g><path d="M 16.078125 -29.328125 L 74.75 -57.90625 C 76.257812 -58.664062 77.644531 -59.296875 78.90625 -59.796875 C 80.164062 -60.304688 81.300781 -60.6875 82.3125 -60.9375 C 83.320312 -61.3125 84.269531 -61.5625 85.15625 -61.6875 L 85.15625 -63.015625 C 84.269531 -63.140625 83.320312 -63.390625 82.3125 -63.765625 C 80.164062 -64.148438 77.644531 -65.097656 74.75 -66.609375 L 16.078125 -95.75 L 16.078125 -112.59375 L 97.453125 -71.90625 L 97.453125 -52.984375 L 16.078125 -12.296875 Z M 16.078125 -29.328125 "/></g></g></g></g></g></svg>